<?xml version="1.0" encoding="UTF-8"?>
<svg width="396.000011px" height="111.55077px" viewBox="0 0 396.000011 111.55077" version="1.1"
     xmlns="http://www.w3.org/2000/svg">
    <title>logo</title>
    <g id="Page-1" stroke="none" stroke-width="1" fill="none" fill-rule="evenodd">
        <g id="logo" fill="#000000" fill-rule="nonzero">
            <g id="Group" transform="translate(0, 2.1405)">
                <path d="M29.0637824,43.2356736 L104.233508,20.9459449 L97.9956709,3.10862447e-15 L0,29.2627013 L5.40540514,46.8929707 L5.40540514,108.100535 L107.027022,108.100535 L107.027022,43.2356736 L29.0637824,43.2356736 Z M83.1989149,49.7221597 L91.8183739,49.7221597 L81.6140501,59.451889 L72.9967532,59.451889 L83.1989149,49.7221597 Z M55.3037811,49.7221597 L63.921078,49.7221597 L53.7167541,59.451889 L45.0983762,59.451889 L55.3037811,49.7221597 Z M36.1470253,49.7221597 L25.9394582,59.451889 L17.3210802,59.451889 L27.5297284,49.7221597 L36.1470253,49.7221597 Z M74.0648612,13.5329723 L86.9221579,19.8389179 L78.3135097,22.4021611 L65.4583752,16.0962154 L74.0648612,13.5329723 Z M47.5124301,21.4421611 L60.3632403,27.7459446 L51.7567542,30.3091877 L38.905944,24.0054042 L47.5124301,21.4421611 Z M20.8994584,29.3708094 L33.7470254,35.6724307 L25.1405393,38.2356738 L12.2951345,31.9351336 L20.8994584,29.3708094 Z M15.4972965,41.239998 C17.9567559,41.239998 19.9513504,43.2335114 19.9513504,45.6929707 C19.9513504,48.1524301 17.957837,50.1470246 15.4972965,50.1470246 C13.0389183,50.1470246 11.0443238,48.1535112 11.0443238,45.6929707 C11.0454049,43.2345925 13.0389183,41.239998 15.4972965,41.239998 Z M52.9729704,101.614049 L11.8918913,101.614049 L11.8918913,86.4789147 L52.9729704,86.4789147 L52.9729704,101.614049 Z M100.540536,101.614049 L59.4594566,101.614049 L59.4594566,86.4789147 L100.540536,86.4789147 L100.540536,101.614049 Z M100.540536,81.0735096 L11.8918913,81.0735096 L11.8918913,65.9383752 L100.540536,65.9383752 L100.540536,81.0735096 Z" id="Shape"></path>
            </g>
            <g id="SvgjsG1753" transform="translate(128.4324, 0)">
                <path d="M62.4038253,0 C63.3215242,0 64.034314,0.611779206 64.034314,1.63151148 L64.034314,9.48314922 C64.034314,10.4008481 63.3205616,11.1146607 62.4028026,11.1146607 L37.8293603,11.1146607 L37.8293603,79.8428114 C37.8293603,80.9644568 37.2175811,81.5752734 36.1978488,81.5752734 L30.2837024,81.5752734 C27.6325188,81.5752734 26.306927,79.8428114 26.306927,77.4975475 L26.306927,11.1156834 L1.73348471,11.1156834 C0.815785823,11.1156834 2.84217094e-14,10.5039042 2.84217094e-14,9.48417196 L2.84217094e-14,1.73540987 C2.84217094e-14,0.714715013 0.713752434,0.000902417946 1.73348471,0.000902417946 L62.4060513,0.000902417946 L62.4038253,0 Z M88.0004973,82.2863186 C102.276148,82.2863186 114.10444,70.9687943 114.10444,56.3875252 C114.10444,41.5000355 102.276148,30.3858561 88.0004973,30.3858561 C73.7248471,30.3858561 61.8965542,41.5006371 61.8965542,56.3875252 C61.8965542,70.9687943 73.7248471,82.2863186 88.0004973,82.2863186 Z M88.0004973,71.8866135 C79.2314014,71.8866135 72.7051148,64.6468152 72.7051148,56.4895586 C72.7051148,48.0260815 79.2307998,40.7862831 88.0004973,40.7862831 C96.7701949,40.7862831 103.29588,48.0260815 103.29588,56.4895586 C103.29588,64.6468152 96.7701949,71.8866135 88.0004973,71.8866135 L88.0004973,71.8866135 Z M150.405095,30.5895619 C162.335661,30.5895619 173.756061,40.3783902 173.756061,55.6737727 C173.756061,70.5612624 164.476798,82.1832023 150.099476,82.1832023 C144.593222,82.1832023 139.902754,80.3497898 136.333992,77.9025527 L136.333992,106.962215 C136.333992,109.919319 133.173003,111.55077 130.929652,111.55077 L126.850903,111.55077 C125.933204,111.55077 125.219392,110.837018 125.219392,109.919259 L125.219392,39.8675615 C125.219392,36.7065719 124.70955,35.0750604 124.403666,33.2396024 C124.20073,32.1179571 124.506632,31.098285 125.526334,31.098285 L132.459912,31.098285 C134.703203,31.098285 136.233764,32.52585 136.334714,34.5651942 C139.801624,32.4238768 144.287423,30.5884188 150.405215,30.5884188 L150.405095,30.5895619 Z M148.36563,71.8880574 C156.625161,71.8880574 162.845227,65.7700247 162.845227,55.674976 C162.845227,45.2743083 155.197535,40.8897603 148.773523,40.8897603 C144.184968,40.8897603 140.004427,42.5212718 136.333391,44.8665357 L136.333391,68.5231214 C139.596354,70.3585192 143.470915,71.8880574 148.36563,71.8880574 L148.36563,71.8880574 Z M204.652119,3.05618878 C205.569818,3.05618878 206.385604,3.76994121 206.385604,4.68770026 L206.385604,79.8410668 C206.385604,80.8607389 205.671851,81.5745515 204.652119,81.5745515 L196.596535,81.5745515 C195.576863,81.5745515 194.86305,80.860799 194.86305,79.8410668 L194.86305,21.5153885 L185.175894,23.8606524 C184.156222,24.0645868 183.544383,23.656718 183.340496,22.6370338 L182.422798,16.8248607 C182.32083,15.8051885 182.524765,15.2953224 183.748389,14.9894629 C188.744837,13.2559782 193.027652,8.055885 195.780629,4.07862831 L195.882596,3.77272667 C196.188498,3.2628846 196.698322,3.05897424 197.412134,3.05897424 L204.651933,3.05897424 L204.652119,3.05618878 Z M266.038044,70.4577851 C267.057717,70.4577851 267.567583,70.9686259 267.567583,72.0903194 L267.567583,79.9431603 C267.567583,80.8598966 265.528238,81.5736491 264.610479,81.5736491 L218.92888,81.5736491 C218.012143,81.5736491 217.297368,80.8598966 217.195395,79.9431603 L217.195395,77.1890409 L247.275993,41.8058349 C252.068494,36.4014944 256.045089,31.0989468 256.045089,24.7772082 C256.045089,17.8436304 249.621077,12.4393501 241.667766,12.4393501 C233.612182,12.4393501 228.411848,17.0279047 224.128973,22.1265059 C223.619131,22.9422316 222.497461,22.9422316 221.783709,22.1265059 L217.093181,17.1300584 C216.481402,16.416306 216.379429,15.395551 216.991214,14.6817985 C223.21128,5.70875609 232.694489,1.42588052 242.279371,1.42588052 C255.331343,1.42588052 267.465254,11.0107623 267.465254,24.6745732 C267.465254,30.4867464 265.221964,36.8084849 260.123784,42.8246046 L236.263252,70.4578453 L266.038231,70.4578453 L266.038044,70.4577851 Z" id="Shape"></path>
            </g>
        </g>
    </g>
</svg>